<?xml version="1.0" encoding="utf-8"?>
<!-- Generator: Adobe Illustrator 15.1.0, SVG Export Plug-In . SVG Version: 6.00 Build 0)  -->
<!DOCTYPE svg PUBLIC "-//W3C//DTD SVG 1.1//EN" "http://www.w3.org/Graphics/SVG/1.1/DTD/svg11.dtd">
<svg version="1.1" id="Layer_1" xmlns="http://www.w3.org/2000/svg" xmlns:xlink="http://www.w3.org/1999/xlink" x="0px" y="0px"
	 width="30px" height="22px" viewBox="0 0 30 22" enable-background="new 0 0 30 22" xml:space="preserve">
<g>
	<g>
		<path fill="#010101" d="M15.442,21.697c-1.306-0.051-2.253-0.713-2.723-1.334c-0.003,0-0.006,0-0.009-0.002
			c-0.383-0.033-1.328-0.367-1.848-0.916c-0.578-0.613-0.901-1.168-0.96-1.652c-0.005-0.041,0.003-0.084,0.023-0.121
			c0.616-1.133,1.313-2.197,1.988-3.227c0.451-0.688,0.9-1.373,1.325-2.078L8.013,8.735c-0.028-0.02-0.05-0.045-0.064-0.074
			C7.922,8.658,7.897,8.649,7.875,8.636L4.652,6.748c-0.04-0.023-0.069-0.059-0.085-0.1C4.532,6.647,4.499,6.637,4.47,6.62
			L0.836,4.425c-0.078-0.047-0.114-0.139-0.09-0.227C0.77,4.112,0.85,4.052,0.94,4.052h5.417c0.007-0.143,0.022-0.25,0.053-0.458
			l0.03-0.207c0.254-1.022,1.052-1.295,1.63-1.414c0.014,0,4.975-0.004,4.975-0.004c0.43-0.971,1.391-1.605,2.543-1.667
			c0.521,0.016,1.165,0.091,1.669,0.535c0.495,0.438,0.589,1,0.939,3.093l0.021,0.121H29.06c0.089,0,0.166,0.058,0.192,0.142
			s-0.006,0.176-0.079,0.226l-3.234,2.194c-0.026,0.018-0.057,0.029-0.088,0.033c-0.015,0.038-0.041,0.072-0.077,0.095L22.904,8.63
			c-0.032,0.022-0.071,0.033-0.11,0.033h-0.002c-0.014,0.038-0.038,0.071-0.072,0.095l-5.258,3.775
			c0.564,1.07,1.152,2.125,1.748,3.182c0.104,0.186,0.223,0.373,0.342,0.564c0.253,0.402,0.515,0.82,0.681,1.254
			c0.101,0.264,0.016,0.631-0.079,0.984c-0.134,0.494-0.667,1.945-2.466,1.945c-0.002,0-0.007,0.004-0.009,0.006
			c-0.462,0.537-1.132,1.162-2.217,1.229c-0.004,0-0.008,0-0.012,0C15.447,21.697,15.444,21.697,15.442,21.697z M8.863,3.634
			C7.871,3.655,7.801,3.656,7.546,4.051c0.604-0.001,3.768-0.013,3.768-0.013c0.624,0,1.25,0.003,1.886,0.011
			c0.008-0.078-0.008-0.225-0.03-0.374c-0.564-0.015-1.128-0.017-1.692-0.017l-1.323-0.002C9.976,3.656,9.796,3.65,9.617,3.646
			C9.404,3.64,9.19,3.633,8.978,3.633L8.863,3.634z M15.008,1.816c-0.073,0-0.115,0.05-0.129,0.071
			c-0.031,0.046-0.038,0.104-0.018,0.152c0.021,0.047,0.041,0.068,0.188,0.098c0.065-0.03,0.085-0.05,0.106-0.1
			c0.019-0.047,0.013-0.104-0.019-0.151C15.122,1.866,15.081,1.816,15.008,1.816z"/>
		<path fill="#991D20" d="M15.598,0.504c0.549,0.018,1.1,0.111,1.526,0.485c0.461,0.407,0.537,0.969,0.922,3.264H29.06l-3.234,2.194
			h-5.744l-0.01,0.127h5.592l-2.869,1.888h-5.602v0.12l5.41,0.013l-5.4,3.878c0.59,1.125,1.207,2.232,1.832,3.342
			c0.324,0.574,0.773,1.174,1.01,1.791c0.092,0.24-0.037,0.68-0.098,0.908c-0.21,0.773-0.84,1.748-2.259,1.748
			c-0.022,0-0.045,0-0.067,0L15.763,12.5l-0.062,0.014l1.826,7.824c-0.422,0.49-1.045,1.096-2.077,1.158
			c-1.321-0.051-2.213-0.75-2.608-1.307l2.157-7.729l-0.062,0.01l-2.209,7.691c-0.359-0.031-1.244-0.354-1.719-0.855
			c-0.705-0.746-0.871-1.242-0.907-1.537c1.05-1.93,2.314-3.627,3.405-5.459l-5.38-3.741h5.033V8.462H7.976L4.753,6.574h5.281V6.447
			H4.574L0.94,4.253h5.614c0-0.316,0.02-0.381,0.085-0.837C6.835,2.63,7.407,2.314,8.11,2.171C8.42,2.175,8.833,2.176,9.303,2.176
			c0.985,0,2.227-0.006,3.325-0.006c0.188,0,0.373,0,0.551,0C13.568,1.153,14.542,0.56,15.598,0.504 M15.008,2.335
			c0.147-0.03,0.268-0.065,0.332-0.219c0.095-0.233-0.077-0.501-0.332-0.501s-0.429,0.268-0.333,0.501
			C14.741,2.27,14.861,2.305,15.008,2.335 M7.179,4.253c1.445,0,2.788-0.013,4.135-0.013c0.674,0,1.349,0.003,2.038,0.013
			c0.004-0.134,0.122-0.017-0.01-0.773c-0.621-0.02-1.243-0.022-1.864-0.022c-0.203,0-0.405,0-0.607,0c-0.238,0-0.477,0-0.714-0.002
			C9.764,3.453,9.37,3.432,8.978,3.432c-0.039,0-0.078,0-0.117,0C7.556,3.46,7.703,3.447,7.179,4.253 M15.598,0.101
			c-0.007,0-0.014,0-0.021,0.001c-1.182,0.062-2.176,0.692-2.661,1.666l-0.289,0l-1.752,0.003L9.303,1.773
			c-0.468,0-0.878-0.001-1.188-0.005c-0.002,0-0.004,0-0.005,0c-0.027,0-0.054,0.003-0.081,0.008
			C7.04,1.979,6.457,2.483,6.249,3.318L6.21,3.564C6.193,3.681,6.18,3.769,6.171,3.85H0.94c-0.181,0-0.339,0.121-0.388,0.295
			c-0.049,0.174,0.025,0.359,0.18,0.453l3.634,2.194C4.389,6.806,4.414,6.818,4.44,6.827c0.03,0.037,0.067,0.069,0.11,0.094
			l3.223,1.888c0.017,0.01,0.035,0.019,0.053,0.026C7.846,8.859,7.871,8.881,7.897,8.9l5.07,3.526
			c-0.396,0.646-0.815,1.287-1.223,1.91c-0.677,1.033-1.376,2.1-1.997,3.24c-0.04,0.074-0.056,0.158-0.046,0.242
			c0.065,0.535,0.397,1.111,1.014,1.764c0.507,0.537,1.404,0.898,1.896,0.971c0.515,0.639,1.494,1.295,2.822,1.346
			c1.156-0.068,1.856-0.684,2.342-1.234c1.871-0.047,2.431-1.572,2.559-2.045l0.013-0.049c0.104-0.387,0.194-0.789,0.072-1.109
			c-0.173-0.451-0.439-0.877-0.697-1.289c-0.118-0.188-0.234-0.373-0.338-0.557c-0.542-0.963-1.116-1.988-1.663-3.021l5.115-3.672
			c0.031-0.022,0.059-0.048,0.081-0.077c0.034-0.011,0.067-0.026,0.098-0.046l2.869-1.888c0.039-0.026,0.072-0.058,0.1-0.093
			c0.023-0.01,0.046-0.022,0.066-0.037l3.234-2.194c0.146-0.099,0.211-0.282,0.159-0.451S29.236,3.85,29.06,3.85H18.387
			c-0.353-2.109-0.452-2.682-0.996-3.163c-0.554-0.487-1.242-0.569-1.78-0.586C15.607,0.102,15.603,0.101,15.598,0.101L15.598,0.101
			z M8.395,3.848C8.51,3.843,8.65,3.84,8.823,3.836l0.155-0.001c0.166,0,0.331,0.004,0.497,0.008c-0.053,0-0.105,0-0.158,0.001
			C9.013,3.845,8.706,3.847,8.395,3.848L8.395,3.848z"/>
	</g>
	<g>
		<path fill="#FFFFFF" d="M7.4,4.103c0.337-0.535,0.337-0.535,1.417-0.556l0.247-0.003c0.198,0,0.396,0.005,0.595,0.011l0.495,0.011
			l1.018,0.003c0.694,0,1.389,0.001,2.083,0.021c0.075,0.455,0.042,0.521,0.024,0.557l-0.008,0.016
			c-0.662-0.009-1.312-0.012-1.96-0.012c0,0-3.282,0.013-3.951,0.013L7.4,4.103z"/>
		<path fill="#991D20" d="M9.064,3.645c0.198,0,0.395,0.005,0.592,0.011c0.166,0.005,0.331,0.009,0.498,0.011
			c0.339,0.002,0.679,0.003,1.019,0.003c0.665,0,1.332,0.001,1.997,0.019c0.022,0.149,0.039,0.296,0.03,0.373
			c-0.637-0.008-1.263-0.011-1.887-0.011c-0.663,0-1.324,0.003-1.996,0.006c-0.58,0.003-1.167,0.005-1.771,0.006
			c0.253-0.395,0.322-0.396,1.317-0.416L9.064,3.645 M9.064,3.443c-0.069,0-0.138,0.001-0.207,0.002
			c-1.306,0.025-1.157,0.014-1.68,0.818c1.444,0,2.787-0.013,4.134-0.013c0.674,0,1.349,0.003,2.038,0.013
			c0.005-0.134,0.123-0.017-0.009-0.772c-1.062-0.033-2.126-0.019-3.186-0.026C9.791,3.461,9.428,3.443,9.064,3.443L9.064,3.443z"/>
	</g>
	<path fill="#FFFFFF" d="M14.999,2.347c-0.146-0.028-0.267-0.067-0.331-0.218c-0.097-0.234,0.077-0.501,0.331-0.501
		c0.256,0,0.429,0.267,0.333,0.501C15.267,2.279,15.147,2.318,14.999,2.347z"/>
</g>
<g>
	<g>
		<defs>
			<rect id="SVGID_1_" x="10.602" y="17.254" width="2.651" height="1.73"/>
		</defs>
		<clipPath id="SVGID_2_">
			<use xlink:href="#SVGID_1_"  overflow="visible"/>
		</clipPath>
		<g clip-path="url(#SVGID_2_)">
			<path fill="#FFFFFF" d="M11.303,17.691l0.204,0.881l0.246-0.881h0.157l0.245,0.881l0.203-0.881h0.164l-0.286,1.082h-0.153
				l-0.252-0.898l-0.251,0.898h-0.155l-0.282-1.082H11.303z"/>
		</g>
	</g>
	<g>
		<defs>
			<rect id="SVGID_3_" x="13.985" y="18.895" width="2.649" height="1.73"/>
		</defs>
		<clipPath id="SVGID_4_">
			<use xlink:href="#SVGID_3_"  overflow="visible"/>
		</clipPath>
		<g clip-path="url(#SVGID_4_)">
			<path fill="#FFFFFF" d="M14.685,19.33l0.204,0.881l0.245-0.881h0.157l0.246,0.883l0.203-0.883h0.162l-0.285,1.084h-0.154
				l-0.249-0.898l-0.253,0.898h-0.152l-0.283-1.084H14.685z"/>
		</g>
	</g>
	<g>
		<defs>
			<rect id="SVGID_5_" x="17.464" y="17.254" width="2.65" height="1.73"/>
		</defs>
		<clipPath id="SVGID_6_">
			<use xlink:href="#SVGID_5_"  overflow="visible"/>
		</clipPath>
		<g clip-path="url(#SVGID_6_)">
			<path fill="#FFFFFF" d="M18.165,17.691l0.205,0.881l0.244-0.881h0.158l0.246,0.881l0.203-0.881h0.162l-0.285,1.082h-0.154
				l-0.25-0.898l-0.25,0.898h-0.156l-0.281-1.082H18.165z"/>
		</g>
	</g>
</g>
<g>
	<path fill="#FFFFFF" d="M9.939,6.075C9.885,6.104,9.762,6.134,9.606,6.134c-0.41,0-0.658-0.257-0.658-0.652
		c0-0.423,0.296-0.68,0.69-0.68c0.156,0,0.264,0.033,0.312,0.058L9.899,5.048c-0.06-0.028-0.145-0.052-0.25-0.052
		c-0.265,0-0.453,0.164-0.453,0.476c0,0.286,0.166,0.466,0.452,0.466c0.091,0,0.191-0.021,0.254-0.048L9.939,6.075z"/>
	<path fill="#FFFFFF" d="M11.713,5.454c0,0.433-0.262,0.68-0.616,0.68c-0.366,0-0.596-0.28-0.596-0.657
		c0-0.397,0.252-0.676,0.615-0.676C11.494,4.801,11.713,5.085,11.713,5.454z M10.752,5.472c0,0.264,0.131,0.473,0.356,0.473
		c0.229,0,0.354-0.213,0.354-0.483c0-0.241-0.119-0.472-0.354-0.472C10.876,4.989,10.752,5.204,10.752,5.472z"/>
	<path fill="#FFFFFF" d="M12.395,4.823h0.233v1.093h0.531v0.195h-0.765V4.823z"/>
	<path fill="#FFFFFF" d="M14.883,5.454c0,0.433-0.261,0.68-0.614,0.68c-0.366,0-0.596-0.28-0.596-0.657
		c0-0.397,0.252-0.676,0.614-0.676C14.662,4.801,14.883,5.085,14.883,5.454z M13.923,5.472c0,0.264,0.132,0.473,0.357,0.473
		c0.228,0,0.355-0.213,0.355-0.483c0-0.241-0.122-0.472-0.355-0.472C14.046,4.989,13.923,5.204,13.923,5.472z"/>
	<path fill="#FFFFFF" d="M15.564,6.111V4.823h0.269l0.333,0.552c0.086,0.146,0.162,0.292,0.221,0.432h0.002
		c-0.016-0.172-0.02-0.338-0.02-0.533v-0.45h0.219v1.288h-0.246l-0.336-0.566c-0.082-0.142-0.166-0.298-0.231-0.444L15.77,5.103
		c0.006,0.165,0.013,0.335,0.013,0.549v0.46H15.564z"/>
	<path fill="#FFFFFF" d="M17.333,6.111V4.823h0.271l0.33,0.552c0.086,0.146,0.164,0.292,0.223,0.432h0.004
		c-0.018-0.172-0.021-0.338-0.021-0.533v-0.45h0.219v1.288h-0.246l-0.336-0.566c-0.084-0.142-0.166-0.298-0.23-0.444L17.54,5.103
		c0.008,0.165,0.012,0.335,0.012,0.549v0.46H17.333z"/>
	<path fill="#FFFFFF" d="M19.829,5.538h-0.488v0.38h0.545v0.193h-0.779V4.823h0.75v0.193h-0.516V5.35h0.488V5.538z"/>
	<path fill="#FFFFFF" d="M20.806,4.823v0.516h0.545V4.823h0.234v1.288h-0.234V5.545h-0.545v0.566h-0.234V4.823H20.806z"/>
</g>
<g>
	<path fill="#FFFFFF" d="M11.589,6.836h0.236v1.092h0.53v0.196h-0.767V6.836z"/>
	<path fill="#FFFFFF" d="M14.082,7.466c0,0.433-0.265,0.681-0.617,0.681c-0.365,0-0.596-0.28-0.596-0.657
		c0-0.396,0.253-0.677,0.615-0.677C13.859,6.812,14.082,7.098,14.082,7.466z M13.118,7.484c0,0.264,0.132,0.473,0.356,0.473
		c0.229,0,0.356-0.212,0.356-0.482c0-0.242-0.12-0.472-0.356-0.472C13.243,7.003,13.118,7.218,13.118,7.484z"/>
	<path fill="#FFFFFF" d="M14.76,6.853c0.106-0.016,0.236-0.027,0.375-0.027c0.24,0,0.406,0.051,0.524,0.151
		c0.126,0.1,0.204,0.256,0.204,0.473c0,0.232-0.079,0.402-0.203,0.513c-0.127,0.117-0.332,0.176-0.584,0.176
		c-0.134,0-0.237-0.006-0.316-0.017V6.853z M14.997,7.947c0.033,0.006,0.08,0.006,0.13,0.006c0.306,0.001,0.488-0.17,0.488-0.496
		c0.002-0.282-0.163-0.447-0.458-0.447c-0.073,0-0.126,0.007-0.16,0.014V7.947z"/>
	<path fill="#FFFFFF" d="M17.577,8.066c-0.08,0.03-0.242,0.071-0.412,0.071c-0.219,0-0.387-0.055-0.506-0.172
		c-0.115-0.11-0.182-0.279-0.182-0.476c0.004-0.408,0.293-0.668,0.719-0.668c0.158,0,0.281,0.032,0.344,0.062l-0.053,0.189
		c-0.072-0.033-0.158-0.056-0.295-0.056c-0.273,0-0.467,0.162-0.467,0.464c0,0.291,0.178,0.466,0.447,0.466
		c0.086,0,0.146-0.011,0.176-0.024V7.599h-0.227V7.412h0.455V8.066z"/>
	<path fill="#FFFFFF" d="M19.019,7.553h-0.486v0.379h0.543v0.192h-0.777V6.836h0.748v0.193h-0.514v0.333h0.486V7.553z"/>
</g>
<g>
	<path fill="#FFFFFF" d="M13.737,9.265h-0.005l-0.229,0.114L13.465,9.2l0.304-0.147h0.194v1.242h-0.227V9.265z"/>
	<path fill="#FFFFFF" d="M14.918,10.052c0.048,0.03,0.165,0.077,0.283,0.077c0.18,0,0.25-0.103,0.25-0.199
		c0-0.146-0.141-0.209-0.283-0.209h-0.107V9.549h0.107c0.107,0,0.244-0.051,0.244-0.173c0-0.085-0.06-0.157-0.198-0.157
		c-0.102,0-0.204,0.044-0.256,0.077l-0.053-0.17c0.071-0.046,0.21-0.094,0.358-0.094c0.257,0,0.39,0.141,0.39,0.304
		c0,0.13-0.078,0.236-0.23,0.29v0.003c0.151,0.029,0.271,0.142,0.272,0.312c0,0.209-0.178,0.376-0.482,0.376
		c-0.152,0-0.282-0.044-0.348-0.087L14.918,10.052z"/>
	<path fill="#FFFFFF" d="M17.229,9.053v0.151l-0.527,1.091h-0.246l0.523-1.044V9.247h-0.588V9.053H17.229z"/>
</g>
</svg>
